<svg xmlns="http://www.w3.org/2000/svg" width="67.489" height="55.582" viewBox="0 0 67.489 55.582"><g transform="translate(1 1)"><g transform="translate(-1.5 -4.5)" opacity="0.5"><path d="M49.128,40.361V34.407A11.907,11.907,0,0,0,37.221,22.5H13.407A11.907,11.907,0,0,0,1.5,34.407v5.954" transform="translate(0 17.721)" fill="none" stroke="#bf6159" stroke-linecap="round" stroke-linejoin="round" stroke-width="2"/><path d="M31.314,16.407A11.907,11.907,0,1,1,19.407,4.5,11.907,11.907,0,0,1,31.314,16.407Z" transform="translate(5.907 0)" fill="none" stroke="#bf6159" stroke-linecap="round" stroke-linejoin="round" stroke-width="2"/><path d="M38.93,40.169V34.215A11.907,11.907,0,0,0,30,22.7" transform="translate(28.059 17.913)" fill="none" stroke="#bf6159" stroke-linecap="round" stroke-linejoin="round" stroke-width="2"/><path d="M24,4.7a11.907,11.907,0,0,1,0,23.07" transform="translate(22.152 0.192)" fill="none" stroke="#bf6159" stroke-linecap="round" stroke-linejoin="round" stroke-width="2"/></g></g></svg>