<svg xmlns="http://www.w3.org/2000/svg" width="48.106" height="59.633" viewBox="0 0 48.106 59.633"><g transform="translate(1 1)"><g transform="translate(-6 -3)" opacity="0.5"><path d="M40.58,6h5.763a5.763,5.763,0,0,1,5.763,5.763V52.106a5.763,5.763,0,0,1-5.763,5.763H11.763A5.763,5.763,0,0,1,6,52.106V11.763A5.763,5.763,0,0,1,11.763,6h5.763" transform="translate(0 2.763)" fill="none" stroke="#bf6159" stroke-linecap="round" stroke-linejoin="round" stroke-width="2"/><path d="M14.882,3h17.29a2.882,2.882,0,0,1,2.882,2.882v5.763a2.882,2.882,0,0,1-2.882,2.882H14.882A2.882,2.882,0,0,1,12,11.645V5.882A2.882,2.882,0,0,1,14.882,3Z" transform="translate(5.527 0)" fill="none" stroke="#bf6159" stroke-linecap="round" stroke-linejoin="round" stroke-width="2"/></g></g></svg>