<svg xmlns="http://www.w3.org/2000/svg" width="55.276" height="61.498" viewBox="0 0 55.276 61.498"><g transform="translate(1 1.072)"><g transform="translate(-4.5 -3.003)" opacity="0.5"><path d="M57.776,44.434V20.756a5.92,5.92,0,0,0-2.96-5.12L34.1,3.8a5.92,5.92,0,0,0-5.92,0L7.46,15.635a5.92,5.92,0,0,0-2.96,5.12V44.434a5.92,5.92,0,0,0,2.96,5.12L28.178,61.393a5.92,5.92,0,0,0,5.92,0L54.816,49.554a5.92,5.92,0,0,0,2.96-5.12Z" transform="translate(0 0)" fill="none" stroke="#bf6159" stroke-linecap="round" stroke-linejoin="round" stroke-width="2"/><path d="M4.905,10.44,30.744,25.387,56.583,10.44" transform="translate(0.394 7.237)" fill="none" stroke="#bf6159" stroke-linecap="round" stroke-linejoin="round" stroke-width="2"/><path d="M18,47.834V18" transform="translate(13.138 14.595)" fill="none" stroke="#bf6159" stroke-linecap="round" stroke-linejoin="round" stroke-width="2"/></g></g></svg>