<svg xmlns="http://www.w3.org/2000/svg" width="29.94" height="34.874" viewBox="0 0 29.94 34.874"><path d="M20.37,28.336a.911.911,0,0,0-.893.717,1.762,1.762,0,0,1-.352.766,1.329,1.329,0,0,1-1.132.415,1.351,1.351,0,0,1-1.132-.415,1.762,1.762,0,0,1-.352-.766.911.911,0,0,0-.893-.717h0a.917.917,0,0,0-.893,1.118,3.142,3.142,0,0,0,3.27,2.609,3.136,3.136,0,0,0,3.27-2.609.92.92,0,0,0-.893-1.118Z" transform="translate(-3.052 2.812)"/><path d="M36.34,30.853c-1.442-1.845-4.28-2.926-4.28-11.185,0-8.478-3.859-11.885-7.456-12.7-.337-.082-.581-.191-.581-.536V6.166A2.262,2.262,0,0,0,21.775,3.93h-.056a2.262,2.262,0,0,0-2.248,2.235v.264c0,.336-.244.454-.581.536-3.606.827-7.456,4.225-7.456,12.7,0,8.26-2.838,9.332-4.28,11.185a1.8,1.8,0,0,0,1.489,2.889H34.878A1.8,1.8,0,0,0,36.34,30.853Zm-3.653.527H10.844a.4.4,0,0,1-.309-.663A10.971,10.971,0,0,0,12.5,27.682a20.04,20.04,0,0,0,1.339-8.014c0-3.389.656-6.042,1.958-7.887a6.016,6.016,0,0,1,3.625-2.508,3.307,3.307,0,0,0,1.742-.954A.756.756,0,0,1,22.281,8.3a3.421,3.421,0,0,0,1.761.972,6.016,6.016,0,0,1,3.625,2.508c1.3,1.845,1.958,4.5,1.958,7.887a20.04,20.04,0,0,0,1.339,8.014,11.1,11.1,0,0,0,2.014,3.08A.375.375,0,0,1,32.687,31.38Z" transform="translate(-6.775 -3.93)"/></svg>