<svg xmlns="http://www.w3.org/2000/svg" width="24.914" height="24.917" viewBox="0 0 24.914 24.917"><path d="M24.745,10.837l0,0L14.579.671a2.294,2.294,0,0,0-3.244,0L1.176,10.83l-.01.01a2.293,2.293,0,0,0,1.526,3.908c.024,0,.047,0,.071,0h.4v7.48a2.688,2.688,0,0,0,2.685,2.685H9.829a.73.73,0,0,0,.73-.73V18.322A1.226,1.226,0,0,1,11.784,17.1H14.13a1.226,1.226,0,0,1,1.225,1.225v5.864a.73.73,0,0,0,.73.73h3.977a2.688,2.688,0,0,0,2.685-2.685v-7.48h.376a2.294,2.294,0,0,0,1.623-3.915Zm-1.034,2.21a.829.829,0,0,1-.59.244H22.016a.73.73,0,0,0-.73.73v8.21a1.226,1.226,0,0,1-1.225,1.225H16.815V18.322a2.688,2.688,0,0,0-2.685-2.685H11.784A2.688,2.688,0,0,0,9.1,18.322v5.134H5.853a1.226,1.226,0,0,1-1.225-1.225v-8.21a.73.73,0,0,0-.73-.73H2.811l-.034,0A.833.833,0,0,1,2.2,11.868h0L12.368,1.7a.833.833,0,0,1,1.179,0L23.708,11.865l0,0a.836.836,0,0,1,0,1.178Zm0,0" transform="translate(-0.5 0.001)"/></svg>