<svg xmlns="http://www.w3.org/2000/svg" width="28.482" height="28.482" viewBox="0 0 28.482 28.482"><path d="M27.926,11.613h-3.56a.556.556,0,0,0-.556.556v2.809a.556.556,0,0,0,1.113,0V12.725H27.37V27.37H24.922V19.15a.556.556,0,0,0-1.113,0V27.37H22.7V15.854a.556.556,0,0,0-.556-.556H18.58a.556.556,0,0,0-.556.556V27.37H16.911V19.749a.556.556,0,0,0-.556-.556h-3.56a.556.556,0,0,0-.556.556V27.37H11.126V22.94a.556.556,0,0,0-.556-.556H7.009a.556.556,0,0,0-.556.556v4.43H1.669a.557.557,0,0,1-.556-.556V1.669a.557.557,0,0,1,.556-.556H16.02V4.784a1.671,1.671,0,0,0,1.669,1.669H21.36V13.3a.556.556,0,1,0,1.113,0V5.9A.556.556,0,0,0,22.31,5.5L16.97.163A.556.556,0,0,0,16.576,0H1.669A1.671,1.671,0,0,0,0,1.669V26.814a1.671,1.671,0,0,0,1.669,1.669H27.926a.556.556,0,0,0,.556-.556V12.169A.556.556,0,0,0,27.926,11.613ZM17.133,1.9l3.441,3.441H17.689a.557.557,0,0,1-.556-.556ZM10.013,27.37H7.566V23.5h2.448Zm5.785,0H13.351V20.3H15.8Zm5.785,0H19.137V16.411h2.448Z" fill="#5f5a56"/><g transform="translate(23.662 16.384)"><path d="M428.98,295.058a.574.574,0,1,0,.168.406A.576.576,0,0,0,428.98,295.058Z" transform="translate(-428 -294.89)" fill="#5f5a56"/></g><g transform="translate(3.078 3.142)"><path d="M58.881,54.729a.574.574,0,0,0-.574.574v1.033a5.28,5.28,0,1,0,5.822,5.822h1.033a.574.574,0,0,0,.574-.574A6.863,6.863,0,0,0,58.881,54.729Zm0,10.986a4.132,4.132,0,0,1-.574-8.223v4.092a.574.574,0,0,0,.574.574h4.092A4.138,4.138,0,0,1,58.881,65.715Zm.574-4.705h0v-5.1a5.718,5.718,0,0,1,5.1,5.1Z" transform="translate(-53.602 -54.729)" fill="#5f5a56"/></g><g transform="translate(3.1 16.348)"><path d="M65.537,294.25H54.574a.574.574,0,0,0,0,1.148H65.537a.574.574,0,0,0,0-1.148Z" transform="translate(-54 -294.25)" fill="#5f5a56"/></g><g transform="translate(3.1 19.028)"><path d="M58.248,342.5H54.574a.574.574,0,1,0,0,1.148h3.674a.574.574,0,1,0,0-1.148Z" transform="translate(-54 -342.5)" fill="#5f5a56"/></g><g transform="translate(9.34 19.028)"><path d="M169.06,342.668a.574.574,0,1,0,.168.406A.578.578,0,0,0,169.06,342.668Z" transform="translate(-168.08 -342.5)" fill="#5f5a56"/></g></svg>