<svg xmlns="http://www.w3.org/2000/svg" width="28.654" height="32.822" viewBox="0 0 28.654 32.822"><path d="M29.016,241.464a.961.961,0,0,0-.823-.464,8.122,8.122,0,0,0-6.92,3.846H9.869a4.776,4.776,0,0,0-3.4,1.408L.782,251.941a.962.962,0,0,0,0,1.36c2.335,2.335,4.786,4.768,4.811,4.792a.962.962,0,0,0,1.356,0l3.647-3.63h8.055a6.71,6.71,0,0,0,5.962-3.607c.029-.056,2.942-5.614,4.431-8.446a.961.961,0,0,0-.028-.945Zm-6.106,8.5a4.792,4.792,0,0,1-4.258,2.576H10.2a.961.961,0,0,0-.678.28L6.27,256.055c-.766-.761-2.084-2.073-3.447-3.434l5.007-5.007a2.866,2.866,0,0,1,2.04-.845H20.241l-.738,1.408a.959.959,0,0,1-.852.515H12.122a.962.962,0,1,0,0,1.923h6.529a2.877,2.877,0,0,0,2.555-1.546l1.484-2.832a6.205,6.205,0,0,1,3.785-3.075c-1.534,2.923-3.542,6.754-3.566,6.8Zm0,0" transform="translate(-0.501 -225.551)" fill="#5f5a56"/><path d="M122.747,17.373h11.539a.962.962,0,0,0,.962-.962V4.808a.962.962,0,0,0-.962-.962H131.4V2.885a2.885,2.885,0,0,0-5.769,0v.962h-2.885a.962.962,0,0,0-.962.962v11.6A.962.962,0,0,0,122.747,17.373Zm4.808-14.488a.962.962,0,1,1,1.923,0v.962h-1.923Zm-3.846,2.885h1.923v.962a.962.962,0,0,0,1.923,0V5.769h1.923v.962a.962.962,0,0,0,1.923,0V5.769h1.923v9.68h-9.616Zm0,0" transform="translate(-114.011)" fill="#5f5a56"/></svg>