<svg xmlns="http://www.w3.org/2000/svg" width="29.593" height="23.974" viewBox="0 0 29.593 23.974"><g transform="translate(0.75 0.75)"><path d="M0,11.237v5.619a1.4,1.4,0,0,0,1.4,1.4h1.4V9.832H1.4A1.4,1.4,0,0,0,0,11.237ZM20.367,4.214H15.451V1.4a1.4,1.4,0,1,0-2.809,0V4.214H7.726A3.511,3.511,0,0,0,4.214,7.726V19.665a2.812,2.812,0,0,0,2.809,2.809H21.07a2.812,2.812,0,0,0,2.809-2.809V7.726A3.511,3.511,0,0,0,20.367,4.214ZM11.237,18.26H8.428v-1.4h2.809Zm-1.4-5.267a1.756,1.756,0,1,1,1.756-1.756A1.755,1.755,0,0,1,9.832,12.993Zm5.619,5.267H12.642v-1.4h2.809Zm4.214,0H16.856v-1.4h2.809Zm-1.4-5.267a1.756,1.756,0,1,1,1.756-1.756A1.755,1.755,0,0,1,18.26,12.993Zm8.428-3.16h-1.4V18.26h1.4a1.4,1.4,0,0,0,1.4-1.4V11.237A1.4,1.4,0,0,0,26.688,9.832Z" fill="none" stroke="#5f5a56" stroke-width="1.5"/></g></svg>