<svg xmlns="http://www.w3.org/2000/svg" width="29.207" height="27.218" viewBox="0 0 29.207 27.218"><path d="M36.428,37.362H34.955A1.451,1.451,0,0,0,33.571,36.3H32V32.453a.406.406,0,0,0-.2-.358l-11.09-6.406a.41.41,0,0,0-.412,0L9.206,32.095A.413.413,0,0,0,9,32.453V45.264a.414.414,0,0,0,.207.358L20.3,52.028a.414.414,0,0,0,.207.055.435.435,0,0,0,.213-.055l5.838-3.367V51.1a1.753,1.753,0,0,0,1.767,1.757h8.1A1.762,1.762,0,0,0,38.207,51.1V39.146A1.786,1.786,0,0,0,36.428,37.362Zm-2.842-.236a.6.6,0,0,1,.6.6v.04a.6.6,0,0,1-.6.6H31.181a.6.6,0,0,1-.6-.6v-.04a.6.6,0,0,1,.6-.6Zm-13.077-10.6,4.61,2.662L14.852,35.114l-4.61-2.662Zm-.393,24.427L9.828,45.025V33.169L20.115,39.1Zm.393-12.573L15.68,35.592l10.266-5.927,4.829,2.788Zm6.051.766V47.7l-5.617,3.248V39.1l10.228-5.928V36.3h.013A1.45,1.45,0,0,0,29.8,37.362H28.327A1.776,1.776,0,0,0,26.559,39.146ZM37.379,51.1a.934.934,0,0,1-.951.929h-8.1a.924.924,0,0,1-.94-.929V39.146a.947.947,0,0,1,.94-.957h1.489a1.416,1.416,0,0,0,1.368,1.005h2.387a1.416,1.416,0,0,0,1.368-1.005h1.489a.957.957,0,0,1,.951.957Z" transform="translate(-9 -25.634)"/><path d="M337.411,280.779h.433a.414.414,0,1,0,0-.828h-.016v-1.123h1.141a.4.4,0,0,0,.393.279.415.415,0,0,0,.416-.413v-.279a.419.419,0,0,0-.418-.416h-1.95a.413.413,0,0,0-.411.416v1.95a.411.411,0,0,0,.411.413Z" transform="translate(-317.608 -263.079)"/><path d="M337.414,344.779h1.951a.414.414,0,0,0,.414-.414v-1.951a.414.414,0,0,0-.414-.414h-1.951a.414.414,0,0,0-.414.414v1.951A.414.414,0,0,0,337.414,344.779Zm.414-1.951h1.123v1.123h-1.123Z" transform="translate(-317.608 -323.296)"/><path d="M337.844,407.951h-.016v-1.123h1.119a.416.416,0,1,0,.832,0v-.4a.432.432,0,0,0-.418-.43h-1.95a.425.425,0,0,0-.411.43v1.95a.4.4,0,0,0,.411.4h.433a.414.414,0,1,0,0-.828Z" transform="translate(-317.607 -383.512)"/><path d="M356.642,284.66l-1.212,1.212-.369-.369a.414.414,0,0,0-.585.585l.661.661a.414.414,0,0,0,.585,0l1.5-1.5a.414.414,0,0,0-.585-.585Z" transform="translate(-333.936 -269.231)"/><path d="M356.642,413.909l-1.212,1.212-.369-.369a.414.414,0,0,0-.585.585l.661.661a.414.414,0,0,0,.585,0l1.5-1.5a.414.414,0,1,0-.585-.585Z" transform="translate(-333.936 -390.839)"/><path d="M416.9,295h-2.6a.414.414,0,1,0,0,.828h2.6a.414.414,0,1,0,0-.828Z" transform="translate(-389.953 -279.074)"/><path d="M416.9,359h-2.6a.414.414,0,0,0,0,.828h2.6a.414.414,0,0,0,0-.828Z" transform="translate(-389.953 -339.29)"/><path d="M416.9,423h-2.6a.414.414,0,1,0,0,.828h2.6a.414.414,0,1,0,0-.828Z" transform="translate(-389.953 -399.507)"/></svg>