<svg xmlns="http://www.w3.org/2000/svg" width="31.022" height="31.022" viewBox="0 0 31.022 31.022"><path d="M176.093,127.181l4.284-12.853a.909.909,0,0,0-1.724-.575l-4.284,12.853a.909.909,0,1,0,1.724.575Z" transform="translate(-163.76 -106.277)" fill="#5f5a56"/><path d="M267.26,194.656a2.727,2.727,0,1,0-2.727-2.727A2.73,2.73,0,0,0,267.26,194.656Zm0-3.635a.909.909,0,1,1-.909.909A.91.91,0,0,1,267.26,191.021Z" transform="translate(-248.504 -177.739)" fill="#5f5a56"/><path d="M97.554,189.2a2.727,2.727,0,1,0,2.727,2.727A2.73,2.73,0,0,0,97.554,189.2Zm0,3.635a.909.909,0,1,1,.909-.909A.91.91,0,0,1,97.554,192.838Z" transform="translate(-89.082 -177.739)" fill="#5f5a56"/><path d="M30.84,11.27,27.671,7.044l.124-.865a.909.909,0,0,0-.257-.771L25.61,3.48l1.928-1.928A.909.909,0,0,0,26.252.266L24.324,2.194,22.4.266a.91.91,0,0,0-.771-.257l-9,1.285a.909.909,0,0,0-.514.257L.975,12.691a3.336,3.336,0,0,0,0,4.713L10.4,26.829a3.324,3.324,0,0,0,.627.492v.369a3.336,3.336,0,0,0,3.332,3.332H27.69a3.336,3.336,0,0,0,3.332-3.332V11.815a.909.909,0,0,0-.182-.545ZM2.26,16.119a1.516,1.516,0,0,1,0-2.142L13.185,3.051l8.247-1.178L23.039,3.48,21.754,4.765l-.643-.643a.909.909,0,0,0-1.285,1.285L22.4,7.978a.909.909,0,0,0,1.285-1.285l-.643-.643,1.285-1.285,1.607,1.607-1.178,8.247L13.828,25.544a1.515,1.515,0,0,1-2.142,0ZM29.2,27.69A1.516,1.516,0,0,1,27.69,29.2H14.36a1.516,1.516,0,0,1-1.51-1.4,3.319,3.319,0,0,0,2.263-.972L26.252,15.69a.909.909,0,0,0,.257-.514l.8-5.587,1.9,2.529Z" transform="translate(0 0)" fill="#5f5a56"/></svg>