<svg xmlns="http://www.w3.org/2000/svg" width="26.74" height="26.74" viewBox="0 0 26.74 26.74"><g transform="translate(0)"><path d="M30.181,22.955l-.677-.084-.146-.353.419-.538a.637.637,0,0,0-.052-.842L28.2,19.611a.637.637,0,0,0-.842-.052l-.538.419-.353-.146-.084-.677a.637.637,0,0,0-.632-.558H23.587a.637.637,0,0,0-.632.558l-.084.677-.353.146-.538-.419a.637.637,0,0,0-.842.052L19.61,21.14a.637.637,0,0,0-.052.842l.419.538-.146.353-.677.084a.637.637,0,0,0-.558.632v.564L15.672,26.71l-3.7-3.237,1.336-.4a.637.637,0,0,0,.454-.61V20.956a5.007,5.007,0,0,0,1.91.446,6.216,6.216,0,0,0,3.585-1.459A5.731,5.731,0,0,0,21.2,17.093c1.188-.357,1.9-2.114,1.9-3.118a1.432,1.432,0,0,0-.388-1.059,1.556,1.556,0,0,0-1-.409,2.324,2.324,0,0,0,.544-1.5V8.032A4.037,4.037,0,0,0,18.218,4H13.125A4.037,4.037,0,0,0,9.093,8.032v2.977a2.324,2.324,0,0,0,.544,1.5,1.557,1.557,0,0,0-1,.409,1.432,1.432,0,0,0-.388,1.059c0,1,.71,2.761,1.9,3.118a5.73,5.73,0,0,0,1.945,2.851c.13.106.264.206.4.3v1.743L5.663,24.037A2.32,2.32,0,0,0,4,26.273V30.1a.637.637,0,1,0,1.273,0v-3.83a1.068,1.068,0,0,1,.756-1.016l4.5-1.351,4.72,4.13a.637.637,0,0,0,.838,0l2.512-2.2a.636.636,0,0,0,.552.544l.677.084.146.353-.419.538a.637.637,0,0,0,.052.842l1.529,1.529a.637.637,0,0,0,.842.052l.538-.419.353.146.084.677a.637.637,0,0,0,.632.558h2.162a.637.637,0,0,0,.632-.558l.084-.677.353-.146.538.419a.637.637,0,0,0,.842-.052L29.725,28.2a.637.637,0,0,0,.052-.842l-.419-.538.146-.353.677-.084a.637.637,0,0,0,.558-.632V23.587a.637.637,0,0,0-.558-.632ZM10.75,11.825a1.056,1.056,0,0,1-.382-.761,20.644,20.644,0,0,1,10.608,0,1.062,1.062,0,0,1-1.262.987,21.307,21.307,0,0,0-4.042-.41,21.307,21.307,0,0,0-4.042.41,1.063,1.063,0,0,1-.88-.226Zm11.076,2.149A2.856,2.856,0,0,1,21.4,15.3V13.763a1.246,1.246,0,0,1,.407.054A.529.529,0,0,1,21.826,13.974Zm-8.7-8.7h5.093a2.762,2.762,0,0,1,2.759,2.759V9.751a21.862,21.862,0,0,0-10.611,0V8.032a2.762,2.762,0,0,1,2.759-2.759Zm-3.59,8.544a1.248,1.248,0,0,1,.407-.054V15.3a2.856,2.856,0,0,1-.424-1.323A.529.529,0,0,1,9.535,13.817Zm1.68,1.855V13.333a6.97,6.97,0,0,0,1.511-.18.637.637,0,1,0,.187-.028h0a18.3,18.3,0,0,1,5.524,0h0a.637.637,0,1,0,.187.028,7.006,7.006,0,0,0,1.511.18v2.338c0,2.94-3.124,4.457-4.457,4.457C13.654,19.985,11.2,18.181,11.215,15.672Zm18.251,9.514-.486.06a.637.637,0,0,0-.51.388l-.43,1.038a.637.637,0,0,0,.086.635l.3.386-.733.733-.386-.3a.637.637,0,0,0-.635-.086l-1.038.43a.637.637,0,0,0-.388.51l-.06.487H24.15l-.06-.486a.637.637,0,0,0-.388-.51l-1.038-.43a.637.637,0,0,0-.635.086l-.386.3-.733-.733.3-.386a.637.637,0,0,0,.086-.635l-.43-1.038a.637.637,0,0,0-.51-.388l-.486-.06V24.15l.486-.06a.637.637,0,0,0,.51-.388l.43-1.038a.637.637,0,0,0-.086-.635l-.3-.386.733-.733.386.3a.637.637,0,0,0,.635.086l1.038-.43a.637.637,0,0,0,.388-.51l.06-.486h1.037l.06.486a.637.637,0,0,0,.388.51l1.038.43a.637.637,0,0,0,.635-.086l.386-.3.733.733-.3.386a.637.637,0,0,0-.086.635l.43,1.038a.637.637,0,0,0,.51.388l.487.06Z" transform="translate(-4 -4)" fill="#5f5a56"/><path d="M347.589,344.631a2.965,2.965,0,1,0,2.1.868A2.965,2.965,0,0,0,347.589,344.631Zm1.069,4.033a1.511,1.511,0,1,1,0-2.136A1.511,1.511,0,0,1,348.658,348.664Z" transform="translate(-326.801 -326.809)" fill="#5f5a56"/></g></svg>