<svg xmlns="http://www.w3.org/2000/svg" width="27.78" height="18.687" viewBox="0 0 27.78 18.687"><g transform="translate(0.25 0.25)"><path d="M25.881,85.333H1.4a1.4,1.4,0,0,0-1.4,1.4v15.389a1.4,1.4,0,0,0,1.4,1.4H25.881a1.4,1.4,0,0,0,1.4-1.4V86.732A1.4,1.4,0,0,0,25.881,85.333Zm-.525,1.049L14.445,94.566a1.463,1.463,0,0,1-1.61,0L1.924,86.382Zm-5.828,8.724,5.946,7.345c.006.007.013.013.02.02H1.787c.006-.007.014-.012.02-.02l5.946-7.345a.525.525,0,0,0-.816-.66l-5.888,7.273V87.038l11.157,8.368a2.5,2.5,0,0,0,2.868,0l11.157-8.368v14.681l-5.887-7.273a.525.525,0,0,0-.816.66Z" transform="translate(0 -85.333)" fill="#5f5a56" stroke="#707070" stroke-width="0.5"/></g></svg>