<svg xmlns="http://www.w3.org/2000/svg" width="28" height="28" viewBox="0 0 28 28"><g opacity="0.5"><path d="M35,47h.9v.9H35Z" transform="translate(-19.645 -26.226)" fill="#a2a2a2"/><path d="M31,47h.9v.9H31Z" transform="translate(-17.452 -26.226)" fill="#a2a2a2"/><path d="M27,47h.9v.9H27Z" transform="translate(-15.258 -26.226)" fill="#a2a2a2"/><path d="M24.032,1a4.972,4.972,0,0,0-4.945,4.516H3.258A2.261,2.261,0,0,0,1,7.774V22.226a2.261,2.261,0,0,0,2.258,2.258h7.5l-.6,1.806h-.126A1.808,1.808,0,0,0,8.226,28.1a.9.9,0,0,0,.9.9H20.871a.9.9,0,0,0,.9-.9,1.808,1.808,0,0,0-1.806-1.806h-.126l-.6-1.806h7.5A2.261,2.261,0,0,0,29,22.226V5.968A4.974,4.974,0,0,0,24.032,1Zm0,.9a4.065,4.065,0,1,1-4.065,4.065A4.069,4.069,0,0,1,24.032,1.9ZM20.871,28.1H9.129a.9.9,0,0,1,.9-.9h9.935A.9.9,0,0,1,20.871,28.1ZM18.89,26.29H11.11l.6-1.806h6.575Zm7.852-2.71H3.258A1.356,1.356,0,0,1,1.9,22.226v-.452h9.671l.9-.9h5.045l.9.9H28.1v.452A1.356,1.356,0,0,1,26.742,23.581Zm1.355-2.71H18.8l-.9-.9H12.1l-.9.9H1.9V7.774A1.356,1.356,0,0,1,3.258,6.419H19.088a4.962,4.962,0,0,0,9.009,2.4Z" transform="translate(-1 -1)" fill="#a2a2a2"/><path d="M46.932,10.551l-.639.639,1.674,1.674L51.9,8.932l-.639-.639-3.294,3.294Z" transform="translate(-25.838 -4.999)" fill="#a2a2a2"/><path d="M48.161,5.9V5A3.165,3.165,0,0,0,45,8.161h.9A2.261,2.261,0,0,1,48.161,5.9Z" transform="translate(-25.129 -3.194)" fill="#a2a2a2"/><path d="M16.305,18.628A2.067,2.067,0,0,0,14.275,17H10.564a2.067,2.067,0,0,0-2.03,1.628L7.05,25.307a2.079,2.079,0,0,0,2.03,2.531h6.68a2.08,2.08,0,0,0,2.03-2.53ZM11.065,17.9h2.71v2.258a1.355,1.355,0,1,1-2.71,0Zm4.695,9.032H9.079A1.176,1.176,0,0,1,7.931,25.5l1.484-6.68a1.166,1.166,0,0,1,.745-.85v2.188a2.258,2.258,0,1,0,4.516,0V17.974a1.167,1.167,0,0,1,.745.85L16.907,25.5a1.141,1.141,0,0,1,.028.255A1.177,1.177,0,0,1,15.759,26.935Z" transform="translate(-4.29 -9.774)" fill="#a2a2a2"/><path d="M35,25h.9v.9H35Z" transform="translate(-19.645 -14.161)" fill="#a2a2a2"/><path d="M39,25h8.129v.9H39Z" transform="translate(-21.839 -14.161)" fill="#a2a2a2"/><path d="M35,29h9.935v.9H35Z" transform="translate(-19.645 -16.355)" fill="#a2a2a2"/><path d="M35,33h7.226v.9H35Z" transform="translate(-19.645 -18.548)" fill="#a2a2a2"/><path d="M53,33h1.806v.9H53Z" transform="translate(-29.516 -18.548)" fill="#a2a2a2"/><path d="M35,37h9.935v.9H35Z" transform="translate(-19.645 -20.742)" fill="#a2a2a2"/><path d="M47,41h.9v.9H47Z" transform="translate(-26.226 -22.935)" fill="#a2a2a2"/><path d="M51,41h.9v.9H51Z" transform="translate(-28.419 -22.935)" fill="#a2a2a2"/><path d="M55,41h.9v.9H55Z" transform="translate(-30.613 -22.935)" fill="#a2a2a2"/></g></svg>