<svg xmlns="http://www.w3.org/2000/svg" width="11.849" height="13.481" viewBox="0 0 11.849 13.481"><g opacity="0.5"><g transform="translate(2.37)"><path d="M124.555,0a3.555,3.555,0,1,0,3.555,3.555A3.559,3.559,0,0,0,124.555,0Zm0,6.319a2.765,2.765,0,1,1,2.765-2.765A2.768,2.768,0,0,1,124.555,6.319Z" transform="translate(-121)" fill="#a2a2a2"/></g><g transform="translate(0 7.899)"><path d="M41.347,301.532A5.067,5.067,0,0,0,37.714,300h-1.58a5.067,5.067,0,0,0-3.633,1.532,5.18,5.18,0,0,0-1.5,3.655.4.4,0,0,0,.395.395H42.454a.4.4,0,0,0,.395-.395A5.18,5.18,0,0,0,41.347,301.532Zm-9.54,3.26a4.371,4.371,0,0,1,4.327-4h1.58a4.371,4.371,0,0,1,4.327,4Z" transform="translate(-31 -300)" fill="#a2a2a2"/></g></g></svg>