<svg xmlns="http://www.w3.org/2000/svg" width="34" height="31.467" viewBox="0 0 34 31.467"><path d="M127.945,104.573l12.669-7.314-5.959-3.44-12.669,7.314Z" transform="translate(-114.764 -89.944)" fill="#bf6159"/><path d="M35.7,160.4,23,153.085v14.631l12.7,7.315Z" transform="translate(-23 -144.887)" fill="#bf6159"/><rect width="1.386" height="1.386" transform="translate(23.932 23.004)" fill="#bf6159"/><path d="M211,160.4v14.631l6.931-4.008V160.461a2.192,2.192,0,0,1,2.181-2.2h1.817a1.79,1.79,0,0,1,1.709-1.313h-.016v-3.861Z" transform="translate(-197.283 -144.887)" fill="#bf6159"/><rect width="4.451" height="1.532" rx="0.766" transform="translate(25.609 13.081)" fill="#bf6159"/><path d="M48.371,44l-5.689-3.285L30.013,48.031,35.7,51.316Z" transform="translate(-29.501 -40.717)" fill="#bf6159"/><path d="M331.156,238h-1.837a1.747,1.747,0,0,1-1.689,1.24h-2.946A1.747,1.747,0,0,1,323,238h-1.837A1.169,1.169,0,0,0,320,239.181v14.745a1.14,1.14,0,0,0,1.159,1.147h10a1.152,1.152,0,0,0,1.174-1.147V239.181A1.181,1.181,0,0,0,331.156,238Zm-9.917,3.432a.51.51,0,0,1,.507-.513h2.406a.517.517,0,0,1,.516.513v.344a.512.512,0,0,1-.513.51.492.492,0,0,1-.486-.345h-1.409v1.386h.02a.511.511,0,0,1,0,1.021h-.535a.507.507,0,0,1-.507-.51Zm0,4.667a.511.511,0,0,1,.511-.511h2.408a.511.511,0,0,1,.511.511v2.408a.511.511,0,0,1-.511.511H321.75a.511.511,0,0,1-.511-.511Zm1.042,7.588h-.535a.493.493,0,0,1-.507-.493v-2.406a.525.525,0,0,1,.507-.53h2.406a.533.533,0,0,1,.516.53v.492a.513.513,0,1,1-1.027,0h-1.381v1.386h.02a.511.511,0,0,1,0,1.021Zm3.769-1.989-1.857,1.857a.511.511,0,0,1-.722,0l-.816-.816a.511.511,0,1,1,.722-.722l.455.455,1.5-1.5a.511.511,0,0,1,.722.722Zm0-9.43-1.857,1.857a.511.511,0,0,1-.722,0l-.816-.816a.511.511,0,1,1,.722-.722l.455.455,1.5-1.5a.511.511,0,1,1,.722.722Zm4.517,10.252H327.36a.511.511,0,0,1,0-1.021h3.208a.511.511,0,0,1,0,1.021Zm0-4.669H327.36a.511.511,0,1,1,0-1.021h3.208a.511.511,0,0,1,0,1.021Zm0-4.669H327.36a.511.511,0,0,1,0-1.021h3.208a.511.511,0,0,1,0,1.021Z" transform="translate(-298.33 -223.606)" fill="#bf6159"/></svg>