<svg xmlns="http://www.w3.org/2000/svg" width="26.991" height="26.999" viewBox="0 0 26.991 26.999"><g transform="translate(-0.501)" opacity="0.5"><path d="M219.625,331.094a.527.527,0,1,0-.746,0A.528.528,0,0,0,219.625,331.094Zm0,0" transform="translate(-206.716 -312.782)" fill="#a2a2a2"/><path d="M188.449,5.8a5.8,5.8,0,1,0,5.8-5.8A5.806,5.806,0,0,0,188.449,5.8Zm10.544,0a4.745,4.745,0,1,1-4.745-4.745A4.75,4.75,0,0,1,198.993,5.8Zm0,0" transform="translate(-178.037)" fill="#a2a2a2"/><path d="M6.573,227.966a.527.527,0,0,0,.744,0l2.556-2.518a1.593,1.593,0,0,0,.375-1.636l.55-.53a1.572,1.572,0,0,1,1.1-.443H18.9a4.72,4.72,0,0,0,3.309-1.344c.037-.036-.278.335,4.781-5.712a2.109,2.109,0,0,0-3.209-2.737l-3.111,3.2a2.119,2.119,0,0,0-1.639-.785H13.158a6.8,6.8,0,0,0-2.64-.527,6.522,6.522,0,0,0-5.945,3.371,1.575,1.575,0,0,0-1.41.437L.655,221.258a.527.527,0,0,0,0,.744Zm3.944-11.977a5.755,5.755,0,0,1,2.321.483.526.526,0,0,0,.211.044h5.987a1.054,1.054,0,1,1,0,2.109h-4.3a.527.527,0,1,0,0,1.054h4.3a2.105,2.105,0,0,0,2.09-2.384c3.009-3.093,3.434-3.528,3.452-3.55a1.055,1.055,0,1,1,1.61,1.362l-4.728,5.653a3.671,3.671,0,0,1-2.555,1.028H11.9a2.621,2.621,0,0,0-1.83.739l-.448.432-4.13-4.13a5.443,5.443,0,0,1,5.029-2.841Zm-6.608,3.5a.526.526,0,0,1,.653-.074c.091.056-.171-.183,4.566,4.547a.528.528,0,0,1,0,.743l-2.179,2.147-5.18-5.22Zm0,0" transform="translate(0 -201.123)" fill="#a2a2a2"/><path d="M266.875,40.516v.618a1.581,1.581,0,0,0,.527,3.073.527.527,0,1,1,0,1.054.953.953,0,0,1-.684-.4.527.527,0,0,0-.807.679,2.187,2.187,0,0,0,.964.687v.615a.527.527,0,0,0,1.054,0v-.618a1.581,1.581,0,0,0-.527-3.073.527.527,0,0,1,0-1.054.846.846,0,0,1,.57.276.527.527,0,0,0,.733-.758,2.037,2.037,0,0,0-.776-.485v-.614a.527.527,0,1,0-1.054,0Zm0,0" transform="translate(-251.296 -37.88)" fill="#a2a2a2"/></g></svg>