<svg xmlns="http://www.w3.org/2000/svg" width="29.25" height="29.25" viewBox="0 0 29.25 29.25"><path d="M9,17.438V31.5a1.128,1.128,0,0,0,1.125,1.125h15.75A1.128,1.128,0,0,0,27,31.5V17.438a1.128,1.128,0,0,0-1.125-1.125H10.125A1.128,1.128,0,0,0,9,17.438Z" transform="translate(-3.375 -3.375)" fill="#bf6159"/><g transform="translate(-3.375 -3.375)"><path d="M27,3.375H9A1.128,1.128,0,0,0,7.875,4.5V5.906a.282.282,0,0,0,.281.281H27.844a.282.282,0,0,0,.281-.281V4.5A1.128,1.128,0,0,0,27,3.375Z" fill="#bf6159"/><path d="M30.41,7.875H5.66a2.25,2.25,0,0,0-2.285,2.2V22.338A2.31,2.31,0,0,0,5.66,24.609H6.75a.564.564,0,0,0,.563-.562V16.594a1.966,1.966,0,0,1,1.969-1.969H26.719a1.966,1.966,0,0,1,1.969,1.969v7.453a.564.564,0,0,0,.563.563h1.16a2.249,2.249,0,0,0,2.215-2.271V10.076A2.189,2.189,0,0,0,30.41,7.875Z" fill="#bf6159"/></g></svg>